<?xml version="1.0" encoding="UTF-8" standalone="no"?>
<!DOCTYPE svg PUBLIC "-//W3C//DTD SVG 1.1//EN" "http://www.w3.org/Graphics/SVG/1.1/DTD/svg11.dtd">
<svg width="100%" height="100%" viewBox="0 0 30 30" version="1.1" xmlns="http://www.w3.org/2000/svg" xmlns:xlink="http://www.w3.org/1999/xlink" xml:space="preserve" xmlns:serif="http://www.serif.com/" style="fill-rule:evenodd;clip-rule:evenodd;stroke-linejoin:round;stroke-miterlimit:2;">
    <g transform="matrix(0.914878,0,0,0.914878,1.20754,1.50448)">
        <path d="M1.784,2.908C0.157,4.534 -0.414,6.939 0.307,9.123C0.308,9.127 0.309,9.131 0.311,9.134C1.353,12.125 3.597,16.732 8.435,21.571C13.274,26.411 17.88,28.656 20.873,29.69C20.876,29.691 20.879,29.692 20.882,29.693C23.062,30.413 25.461,29.843 27.085,28.221C27.893,27.424 28.763,26.554 29.405,25.911C29.786,25.531 30,25.015 30,24.476C30,23.938 29.786,23.421 29.405,23.041C28.118,21.753 25.841,19.476 24.554,18.188C24.174,17.808 23.657,17.593 23.119,17.593C22.581,17.593 22.064,17.807 21.684,18.188L19.326,20.546C19.112,20.761 18.782,20.806 18.519,20.659C17.425,19.955 15.486,18.591 13.45,16.555C11.417,14.52 10.052,12.582 9.358,11.496C9.203,11.23 9.247,10.896 9.462,10.68L9.465,10.678C10.124,10.012 11.098,9.039 11.817,8.318C12.198,7.938 12.412,7.422 12.412,6.883C12.412,6.344 12.197,5.828 11.817,5.448C10.53,4.16 8.253,1.882 6.966,0.595C6.585,0.215 6.069,0 5.531,0C4.992,0 4.476,0.215 4.096,0.595L1.784,2.908ZM2.74,3.864L5.053,1.552C5.179,1.425 5.352,1.353 5.531,1.353C5.71,1.353 5.883,1.425 6.009,1.552L10.861,6.405C10.987,6.531 11.059,6.704 11.059,6.883C11.059,7.062 10.987,7.235 10.861,7.361C10.139,8.083 9.165,9.058 8.504,9.725C7.85,10.379 7.723,11.397 8.199,12.194C8.203,12.2 8.206,12.205 8.21,12.211C8.932,13.344 10.36,15.377 12.494,17.511C14.627,19.645 16.659,21.073 17.788,21.799C17.795,21.803 17.801,21.807 17.807,21.811C18.606,22.288 19.626,22.161 20.283,21.503L22.641,19.145C22.767,19.018 22.94,18.947 23.119,18.947C23.298,18.947 23.471,19.018 23.597,19.145L28.449,23.998C28.575,24.124 28.647,24.297 28.647,24.476C28.647,24.656 28.575,24.828 28.449,24.955C27.809,25.595 26.94,26.464 26.134,27.258C26.133,27.259 26.132,27.26 26.131,27.261C24.869,28.523 23.005,28.967 21.31,28.409C18.439,27.416 14.03,25.254 9.391,20.615C4.754,15.975 2.591,11.564 1.59,8.694C1.032,6.997 1.476,5.128 2.74,3.864Z" style="fill:white;stroke:white;stroke-width:1.75px;"/>
    </g>
</svg>
