<svg width="30" height="32" viewBox="0 0 30 32" fill="none" xmlns="http://www.w3.org/2000/svg">
<path d="M15.75 3.20089C15.522 3.06923 15.2633 2.99992 15 2.99992C14.7367 2.99992 14.478 3.06923 14.25 3.20089L3 9.69589V28.3304H9.75V19.3304C9.75 18.9326 9.90804 18.551 10.1893 18.2697C10.4706 17.9884 10.8522 17.8304 11.25 17.8304H18.75C19.1478 17.8304 19.5294 17.9884 19.8107 18.2697C20.092 18.551 20.25 18.9326 20.25 19.3304V28.3304H27V9.69589L15.75 3.20089ZM12.75 0.602886C13.4341 0.207928 14.2101 0 15 0C15.7899 0 16.5659 0.207928 17.25 0.602886L28.5 7.09789C28.956 7.36118 29.3348 7.73989 29.5981 8.19593C29.8614 8.65197 30 9.16929 30 9.69589V29.8304C30 30.2282 29.842 30.6097 29.5607 30.8911C29.2794 31.1724 28.8978 31.3304 28.5 31.3304H18.75C18.3522 31.3304 17.9706 31.1724 17.6893 30.8911C17.408 30.6097 17.25 30.2282 17.25 29.8304V20.8304H12.75V29.8304C12.75 30.2282 12.592 30.6097 12.3107 30.8911C12.0294 31.1724 11.6478 31.3304 11.25 31.3304H1.5C1.10218 31.3304 0.720644 31.1724 0.43934 30.8911C0.158035 30.6097 0 30.2282 0 29.8304V9.69589C1.33777e-05 9.16929 0.138639 8.65197 0.401943 8.19593C0.665247 7.73989 1.04395 7.36118 1.5 7.09789L12.75 0.602886Z" fill="white"/>
</svg>
