<svg width="32" height="32" viewBox="0 0 32 32" fill="none" xmlns="http://www.w3.org/2000/svg">
<circle cx="16" cy="16" r="16" fill="#1ED760"/>
<path d="M22.4801 8.06018L7.89503 12.7776C7.46544 12.9162 7.14017 13.2701 7.03684 13.709C6.94058 14.0761 7.03582 14.4664 7.28913 14.7495L13.8142 17.6831L17.0393 14.4643C17.2045 14.3045 17.4659 14.3065 17.629 14.4673C17.7911 14.6291 17.7942 14.89 17.6361 15.0558L14.407 18.2747L17.392 24.7364H17.393C17.7183 24.9902 18.1499 25.0661 18.543 24.9407C18.9372 24.8143 19.2432 24.5028 19.3607 24.1074L23.9435 9.50433C24.0782 9.09073 23.9678 8.6377 23.6577 8.33132C23.3487 8.02593 22.8928 7.92178 22.4804 8.06031L22.4801 8.06018Z" fill="black"/>
</svg>
